<svg xmlns="http://www.w3.org/2000/svg" xmlns:xlink="http://www.w3.org/1999/xlink" version="1.1" width="1481.3651362730677" height="2819.415478633119"><desc>title%20http-public-address%0A%0Aactor%20User%0A%0Aparticipantgroup%20Home%20Assistant%20Server%0A%20%20materialdesignicons%20F07D0%20%22Platform%22%20as%20HA%20%2319bcf2%0A%20%20materialdesignicons%20F04AA%20%22Node%20Red%22%20as%20NodeRed%20%23red%0A%20%20materialdesignicons%20F062F%20%22Node%20Red%20Webook%22%20as%20webhook%20%23red%0Aend%0A%0Aparticipantgroup%20Service%0A%20%20materialdesignicons%20F059F%20%22Handler%22%20as%20web%20%23blue%0A%20%20materialdesignicons%20F02CA%20%22Local%20Disk%22%20as%20disk%0Aend%0A%0Afontawesome6brands%20f375%20%22AWS%20Polly%22%20as%20aws%20%23gold%0A%0AUser-%3EHA%3A%20Announcement%20request%0A%0AHA-%3ENodeRed%3A%20Format%20request%0ANodeRed-%3Eweb%3A%20POST%3A%20%22%22%2Fapi%2Fsynthesize%22%22%0Aweb-%3ENodeRed%3A%20HTTP%3A%20202%2FAccepted%0Aweb-%3Edisk%3ACheck%20filename%20exists%0A%0Agroup%20File%20exists%0A%20%20disk-%3Eweb%3A%20Filename%0Aend%0A%0Agroup%20File%20does%20not%20exist%0A%20%20web-%3Eaws%3A%20Start%20Speech%20Synthesis%20Task%0A%20%20%0A%20%20group%20%23808080%20Error%20condition%20%23FFFFFF%0A%20%20%20%20aws-xweb%3A%3Ccolor%3A%23e67373%3ESequence%20ends%3C%2Fcolor%3E%0A%20%20end%0A%20%20%0A%20%20aws-%3Eweb%3A%20Binary%20data%0A%20%20web-%3Edisk%3AWrite%20binary%20data%0A%20%20disk-%3Eweb%3A%20Filename%0Aend%0A%0Agroup%20%23808080%20Error%20condition%20%23FFFFFF%0A%20%20web-x(3)webhook%3A%20No%20request%20will%20be%20made%3B%5Cn%3Ccolor%3A%23e67373%3ESequence%20ends%3C%2Fcolor%3E%0Aend%0A%0Agroup%20Webhook%20Callback%20Not%20Specified%0A%20%20web-x(3)webhook%3A%20No%20request%20will%20be%20made%3B%5Cn%3Ccolor%3A%23e67373%3ESequence%20ends%3C%2Fcolor%3E%0Aend%0A%0Aweb-%3E(3)webhook%3A%20POST%3A%20%3Ccolor%3A%23blue%3E%22%22SYNTHESIS_COMPLETE%22%22%3C%2Fcolor%3E%0Awebhook-%3Eweb%3A%20(HTTP%20response%20ignored)%0Awebhook-%3ENodeRed%3A%20Synthesis%20complete%20payload%0A%0ANodeRed-%23green%3ENodeRed%3A%20%3Ccolor%3A%23green%3EIf%20AirPlay%20is%20playing%2C%5Cnchange%20AirPlay%20volume%20to%2050%25%3C%2Fcolor%3E%0A%0ANodeRed-%3Eweb%3A%20POST%3A%20%22%22%2Fapi%2Fplayback%22%22%0Aweb-%3ENodeRed%3A%20HTTP%3A%20204%2FNo%20content%0Adisk-%3Eweb%3ABinary%20data%0A%0Agroup%20%23808080%20File%20not%20found%20%23FFFFFF%0A%20%20disk-%3Eweb%3A%20File%20not%20found%0A%20%20web-%3ENodeRed%3A%20HTTP%3A%20404%5Cn%3Ccolor%3A%23e67373%3ESequence%20ends%3C%2Fcolor%3E%0Aend%0A%0Agroup%20%23808080%20Error%20condition%20%23FFFFFF%0A%20%20web-%3ENodeRed%3A%20HTTP%3A%20500%5Cn%3Ccolor%3A%23e67373%3ESequence%20ends%3C%2Fcolor%3E%0Aend%0A%0A%0Aweb-%3E(3)webhook%3A%20POST%3A%20%3Ccolor%3A%23blue%3E%22%22PLAYBACK_START%22%22%3C%2Fcolor%3E%0Awebhook--%3Eweb%3A%20(HTTP%20response%20ignored)%0Aweb-%3E(3)User%3A%20Audio%20is%20played%0Agroup%20Multiple%20Playback%20Requests%20in%20Queue%0Aweb-%3E(3)User%3A%20Audio%20is%20played%0Aweb-%3E(3)User%3A%20Audio%20is%20played%0Aend%0Aweb-%3E(3)webhook%3A%20POST%3A%20%3Ccolor%3A%23blue%3E%22%22PLAYBACK_COMPLETE%22%22%3C%2Fcolor%3E%0Awebhook--%3Eweb%3A%20(HTTP%20response%20ignored)%0A%0ANodeRed-%23green%3ENodeRed%3A%20%3Ccolor%3A%23green%3EIf%20AirPlay%20was%20previously%20playing%2C%5Cnreset%20AirPlay%20volume%20to%20100%25%3C%2Fcolor%3E</desc><defs/><g><g/><g/><g/><g/><g/><g/><g/><g/><g/><g/><g/><g/><g/><g/><g/><g/><g/><g/><g/><g/><g/><g/><g/><g/><g/><g/><g/><g/><g/><g/><g/><g/><g/><g/><g/><g/><g/><g/><g/><g/><g/><g/><g/><g/><g/><g/><g/><g/><g/><g/><g/><g/><g/><g/><g/><g/><g/><g/><g/><g/><g/><g/><g/><g/><g/><g/><g/><g/><g/><g/><g/><g/><g/><g/><g/><g/><g/><g/><g/><g/><g/><g/><g/><g/><g/><g/><g/><g/><g/><g/><g/><g/><g/><g/><g/><g/><g/><g/><g/><g/><g/><g/><g/><g/><g/><g/><g/><g/><g/><g/><g/><g/><g/><g/><g/><g/><g/><g/><g/><g/><g/><g/><g/><g/><g/><g/><g/><g/><g/><g/><g/><g/><g/><g/><g/><g/><g/><g/><g/><g/><g/><g/><g/><g/><g/><g/><g/><g/><g/><g/><g/><g/><g/><g/><g/><g/><g/><g/><g/><g/><g/><g/><g/><g/><g/><g/><g/><g/><g/><g/><g/><g/><g/><g/><g/><g/><g/><g/><g/><g/><g/><g/><g/><g/><g/><g/><g/><g/><g/><g/><g/><g/><g/><g/><g/><g/><g/><g/><g/><g/><g/><g/><g/><g/><g/><g/><g/><g/><g/><g/><g/><g/><g/><g/><g/><g/><g/><g/><g/><g/><g/><g/><g/><g/><g/><g/><g/><g/><g/><g/><g/><g/><g/><g/><g/><g/><g/><g/><g/><g/><g/><g/><g/><g/><g/><g/><g><rect fill="white" stroke="none" x="0" y="0" width="1481" height="2828"/></g><g><g><path fill="none" stroke="black" paint-order="fill stroke markers" d=" M 277.66332691842445 54.11064651172727 L 783.2201429046003 54.11064651172727 L 783.2201429046003 2819.415478633119 L 277.66332691842445 2819.415478633119 L 277.66332691842445 54.11064651172727 Z" stroke-miterlimit="10" stroke-width="1.4659797833333332" stroke-dasharray=""/></g><g><text fill="black" stroke="none" font-family="sans-serif" font-size="11pt" font-style="normal" font-weight="normal" text-decoration="normal" x="455.48829710633663" y="78.73910687172727" text-anchor="start" dominant-baseline="alphabetic" xml:space="preserve">Home Assistant Server</text></g><g><path fill="none" stroke="black" paint-order="fill stroke markers" d=" M 992.5117308400717 54.11064651172727 L 1267.8549054288944 54.11064651172727 L 1267.8549054288944 2819.415478633119 L 992.5117308400717 2819.415478633119 L 992.5117308400717 54.11064651172727 Z" stroke-miterlimit="10" stroke-width="1.4659797833333332" stroke-dasharray=""/></g><g><text fill="black" stroke="none" font-family="sans-serif" font-size="11pt" font-style="normal" font-weight="normal" text-decoration="normal" x="1105.7416753732525" y="78.73910687172727" text-anchor="start" dominant-baseline="alphabetic" xml:space="preserve">Service</text></g><rect fill="rgb(230,230,230)" stroke="none" x="973.8644679960717" y="685.5667783847273" width="472.31715347699605" height="96.75466570000003"/><rect fill="rgb(230,230,230)" stroke="none" x="651.0492574086041" y="982.8674784447275" width="445.95751238746755" height="154.2916399781842"/><rect fill="rgb(230,230,230)" stroke="none" x="405.32609878171615" y="1772.6551711750535" width="881.1760694911784" height="163.60334381999996"/><rect fill="rgb(230,230,230)" stroke="none" x="405.32609878171615" y="1962.6461510950535" width="691.6806710143555" height="114.34642309999981"/></g><g><path fill="none" stroke="black" paint-order="fill stroke markers" d=" M 79.1629083 184.2016924847273 L 79.1629083 2819.415478633119" stroke-miterlimit="10" stroke-width="1.4659797833333332" stroke-dasharray="13.532121076923076,5.863919133333333"/><path fill="none" stroke="black" paint-order="fill stroke markers" d=" M 320.58721497442446 184.2016924847273 L 320.58721497442446 2819.415478633119" stroke-miterlimit="10" stroke-width="1.4659797833333332" stroke-dasharray="13.532121076923076,5.863919133333333"/><path fill="none" stroke="black" paint-order="fill stroke markers" d=" M 466.8972496817161 184.2016924847273 L 466.8972496817161 2819.415478633119" stroke-miterlimit="10" stroke-width="1.4659797833333332" stroke-dasharray="13.532121076923076,5.863919133333333"/><path fill="none" stroke="black" paint-order="fill stroke markers" d=" M 712.6204083086042 184.2016924847273 L 712.6204083086042 2819.415478633119" stroke-miterlimit="10" stroke-width="1.4659797833333332" stroke-dasharray="13.532121076923076,5.863919133333333"/><path fill="none" stroke="black" paint-order="fill stroke markers" d=" M 1035.4356188960717 184.2016924847273 L 1035.4356188960717 2819.415478633119" stroke-miterlimit="10" stroke-width="1.4659797833333332" stroke-dasharray="13.532121076923076,5.863919133333333"/><path fill="none" stroke="black" paint-order="fill stroke markers" d=" M 1224.9310173728945 184.2016924847273 L 1224.9310173728945 2819.415478633119" stroke-miterlimit="10" stroke-width="1.4659797833333332" stroke-dasharray="13.532121076923076,5.863919133333333"/><path fill="none" stroke="black" paint-order="fill stroke markers" d=" M 1384.6104705730677 184.2016924847273 L 1384.6104705730677 2819.415478633119" stroke-miterlimit="10" stroke-width="1.4659797833333332" stroke-dasharray="13.532121076923076,5.863919133333333"/></g><g><g><path fill="white" stroke="black" paint-order="fill stroke markers" d=" M 89.190210018 109.78855868272727 A 10.027301717999999 10.027301717999999 0 1 1 89.19020500434955 109.77853138268048 M 79.1629083 119.81586040072726 L 79.1629083 141.27780442872725 M 66.496842972 127.55623365672727 L 91.828973628 127.55623365672727 M 79.1629083 141.27780442872725 L 66.496842972 161.33240786472726 M 79.1629083 141.27780442872725 L 91.828973628 161.33240786472726" stroke-miterlimit="10" stroke-width="2.990598758" stroke-dasharray=""/></g><g><g/><text fill="black" stroke="none" font-family="sans-serif" font-size="11pt" font-style="normal" font-weight="normal" text-decoration="normal" x="63.68689511640625" y="178.92416526472726" text-anchor="start" dominant-baseline="alphabetic" xml:space="preserve">User</text></g><svg xmlns="http://www.w3.org/2000/svg" viewBox="0 0 24 24" id="mdi-home-assistant" width="68.256018712" height="68.256018712" x="286.45920561842445" y="93.07638915272726"><path d="M21.8,13H20V21H13V17.67L15.79,14.88L16.5,15C17.66,15 18.6,14.06 18.6,12.9C18.6,11.74 17.66,10.8 16.5,10.8A2.1,2.1 0 0,0 14.4,12.9L14.5,13.61L13,15.13V9.65C13.66,9.29 14.1,8.6 14.1,7.8A2.1,2.1 0 0,0 12,5.7A2.1,2.1 0 0,0 9.9,7.8C9.9,8.6 10.34,9.29 11,9.65V15.13L9.5,13.61L9.6,12.9A2.1,2.1 0 0,0 7.5,10.8A2.1,2.1 0 0,0 5.4,12.9A2.1,2.1 0 0,0 7.5,15L8.21,14.88L11,17.67V21H4V13H2.25C1.83,13 1.42,13 1.42,12.79C1.43,12.57 1.85,12.15 2.28,11.72L11,3C11.33,2.67 11.67,2.33 12,2.33C12.33,2.33 12.67,2.67 13,3L17,7V6H19V9L21.78,11.78C22.18,12.18 22.59,12.59 22.6,12.8C22.6,13 22.2,13 21.8,13M7.5,12A0.9,0.9 0 0,1 8.4,12.9A0.9,0.9 0 0,1 7.5,13.8A0.9,0.9 0 0,1 6.6,12.9A0.9,0.9 0 0,1 7.5,12M16.5,12C17,12 17.4,12.4 17.4,12.9C17.4,13.4 17,13.8 16.5,13.8A0.9,0.9 0 0,1 15.6,12.9A0.9,0.9 0 0,1 16.5,12M12,6.9C12.5,6.9 12.9,7.3 12.9,7.8C12.9,8.3 12.5,8.7 12,8.7C11.5,8.7 11.1,8.3 11.1,7.8C11.1,7.3 11.5,6.9 12,6.9Z" fill="#19bcf2"/></svg><g><text fill="black" stroke="none" font-family="sans-serif" font-size="11pt" font-style="normal" font-weight="normal" text-decoration="normal" x="293.2966037073346" y="178.92416526472726" text-anchor="start" dominant-baseline="alphabetic" xml:space="preserve">Platform</text></g><svg xmlns="http://www.w3.org/2000/svg" viewBox="0 0 24 24" id="mdi-sitemap" width="68.256018712" height="68.256018712" x="432.7692403257161" y="93.07638915272726"><path d="M9,2V8H11V11H5C3.89,11 3,11.89 3,13V16H1V22H7V16H5V13H11V16H9V22H15V16H13V13H19V16H17V22H23V16H21V13C21,11.89 20.11,11 19,11H13V8H15V2H9Z" fill="red"/></svg><g><text fill="black" stroke="none" font-family="sans-serif" font-size="11pt" font-style="normal" font-weight="normal" text-decoration="normal" x="433.89081047273174" y="178.92416526472726" text-anchor="start" dominant-baseline="alphabetic" xml:space="preserve">Node Red</text></g><svg xmlns="http://www.w3.org/2000/svg" viewBox="0 0 24 24" id="mdi-webhook" width="68.256018712" height="68.256018712" x="678.4923989526042" y="93.07638915272726"><path d="M10.46,19C9,21.07 6.15,21.59 4.09,20.15C2.04,18.71 1.56,15.84 3,13.75C3.87,12.5 5.21,11.83 6.58,11.77L6.63,13.2C5.72,13.27 4.84,13.74 4.27,14.56C3.27,16 3.58,17.94 4.95,18.91C6.33,19.87 8.26,19.5 9.26,18.07C9.57,17.62 9.75,17.13 9.82,16.63V15.62L15.4,15.58L15.47,15.47C16,14.55 17.15,14.23 18.05,14.75C18.95,15.27 19.26,16.43 18.73,17.35C18.2,18.26 17.04,18.58 16.14,18.06C15.73,17.83 15.44,17.46 15.31,17.04L11.24,17.06C11.13,17.73 10.87,18.38 10.46,19M17.74,11.86C20.27,12.17 22.07,14.44 21.76,16.93C21.45,19.43 19.15,21.2 16.62,20.89C15.13,20.71 13.9,19.86 13.19,18.68L14.43,17.96C14.92,18.73 15.75,19.28 16.75,19.41C18.5,19.62 20.05,18.43 20.26,16.76C20.47,15.09 19.23,13.56 17.5,13.35C16.96,13.29 16.44,13.36 15.97,13.53L15.12,13.97L12.54,9.2H12.32C11.26,9.16 10.44,8.29 10.47,7.25C10.5,6.21 11.4,5.4 12.45,5.44C13.5,5.5 14.33,6.35 14.3,7.39C14.28,7.83 14.11,8.23 13.84,8.54L15.74,12.05C16.36,11.85 17.04,11.78 17.74,11.86M8.25,9.14C7.25,6.79 8.31,4.1 10.62,3.12C12.94,2.14 15.62,3.25 16.62,5.6C17.21,6.97 17.09,8.47 16.42,9.67L15.18,8.95C15.6,8.14 15.67,7.15 15.27,6.22C14.59,4.62 12.78,3.85 11.23,4.5C9.67,5.16 8.97,7 9.65,8.6C9.93,9.26 10.4,9.77 10.97,10.11L11.36,10.32L8.29,15.31C8.32,15.36 8.36,15.42 8.39,15.5C8.88,16.41 8.54,17.56 7.62,18.05C6.71,18.54 5.56,18.18 5.06,17.24C4.57,16.31 4.91,15.16 5.83,14.67C6.22,14.46 6.65,14.41 7.06,14.5L9.37,10.73C8.9,10.3 8.5,9.76 8.25,9.14Z" fill="red"/></svg><g><text fill="black" stroke="none" font-family="sans-serif" font-size="11pt" font-style="normal" font-weight="normal" text-decoration="normal" x="650.8165524126081" y="178.92416526472726" text-anchor="start" dominant-baseline="alphabetic" xml:space="preserve">Node Red Webook</text></g><svg xmlns="http://www.w3.org/2000/svg" viewBox="0 0 24 24" id="mdi-web" width="68.256018712" height="68.256018712" x="1001.3076095400717" y="93.07638915272726"><path d="M16.36,14C16.44,13.34 16.5,12.68 16.5,12C16.5,11.32 16.44,10.66 16.36,10H19.74C19.9,10.64 20,11.31 20,12C20,12.69 19.9,13.36 19.74,14M14.59,19.56C15.19,18.45 15.65,17.25 15.97,16H18.92C17.96,17.65 16.43,18.93 14.59,19.56M14.34,14H9.66C9.56,13.34 9.5,12.68 9.5,12C9.5,11.32 9.56,10.65 9.66,10H14.34C14.43,10.65 14.5,11.32 14.5,12C14.5,12.68 14.43,13.34 14.34,14M12,19.96C11.17,18.76 10.5,17.43 10.09,16H13.91C13.5,17.43 12.83,18.76 12,19.96M8,8H5.08C6.03,6.34 7.57,5.06 9.4,4.44C8.8,5.55 8.35,6.75 8,8M5.08,16H8C8.35,17.25 8.8,18.45 9.4,19.56C7.57,18.93 6.03,17.65 5.08,16M4.26,14C4.1,13.36 4,12.69 4,12C4,11.31 4.1,10.64 4.26,10H7.64C7.56,10.66 7.5,11.32 7.5,12C7.5,12.68 7.56,13.34 7.64,14M12,4.03C12.83,5.23 13.5,6.57 13.91,8H10.09C10.5,6.57 11.17,5.23 12,4.03M18.92,8H15.97C15.65,6.75 15.19,5.55 14.59,4.44C16.43,5.07 17.96,6.34 18.92,8M12,2C6.47,2 2,6.5 2,12A10,10 0 0,0 12,22A10,10 0 0,0 22,12A10,10 0 0,0 12,2Z" fill="blue"/></svg><g><text fill="black" stroke="none" font-family="sans-serif" font-size="11pt" font-style="normal" font-weight="normal" text-decoration="normal" x="1009.7663378902123" y="178.92416526472726" text-anchor="start" dominant-baseline="alphabetic" xml:space="preserve">Handler</text></g><svg xmlns="http://www.w3.org/2000/svg" viewBox="0 0 24 24" id="mdi-harddisk" width="68.256018712" height="68.256018712" x="1190.8030080168946" y="93.07638915272726"><path d="M6,2H18A2,2 0 0,1 20,4V20A2,2 0 0,1 18,22H6A2,2 0 0,1 4,20V4A2,2 0 0,1 6,2M12,4A6,6 0 0,0 6,10C6,13.31 8.69,16 12.1,16L11.22,13.77C10.95,13.29 11.11,12.68 11.59,12.4L12.45,11.9C12.93,11.63 13.54,11.79 13.82,12.27L15.74,14.69C17.12,13.59 18,11.9 18,10A6,6 0 0,0 12,4M12,9A1,1 0 0,1 13,10A1,1 0 0,1 12,11A1,1 0 0,1 11,10A1,1 0 0,1 12,9M7,18A1,1 0 0,0 6,19A1,1 0 0,0 7,20A1,1 0 0,0 8,19A1,1 0 0,0 7,18M12.09,13.27L14.58,19.58L17.17,18.08L12.95,12.77L12.09,13.27Z"/></svg><g><text fill="black" stroke="none" font-family="sans-serif" font-size="11pt" font-style="normal" font-weight="normal" text-decoration="normal" x="1191.1192955711367" y="178.92416526472726" text-anchor="start" dominant-baseline="alphabetic" xml:space="preserve">Local Disk</text></g><svg xmlns="http://www.w3.org/2000/svg" viewBox="0 0 640 512" width="85.54754345237333" height="68.256018712" x="1341.836698846881" y="93.07638915272726"><path d="M180.41 203.01c-.72 22.65 10.6 32.68 10.88 39.05a8.164 8.164 0 0 1-4.1 6.27l-12.8 8.96a10.66 10.66 0 0 1-5.63 1.92c-.43-.02-8.19 1.83-20.48-25.61a78.608 78.608 0 0 1-62.61 29.45c-16.28.89-60.4-9.24-58.13-56.21-1.59-38.28 34.06-62.06 70.93-60.05 7.1.02 21.6.37 46.99 6.27v-15.62c2.69-26.46-14.7-46.99-44.81-43.91-2.4.01-19.4-.5-45.84 10.11-7.36 3.38-8.3 2.82-10.75 2.82-7.41 0-4.36-21.48-2.94-24.2 5.21-6.4 35.86-18.35 65.94-18.18a76.857 76.857 0 0 1 55.69 17.28 70.285 70.285 0 0 1 17.67 52.36l-.01 69.29zM93.99 235.4c32.43-.47 46.16-19.97 49.29-30.47 2.46-10.05 2.05-16.41 2.05-27.4-9.67-2.32-23.59-4.85-39.56-4.87-15.15-1.14-42.82 5.63-41.74 32.26-1.24 16.79 11.12 31.4 29.96 30.48zm170.92 23.05c-7.86.72-11.52-4.86-12.68-10.37l-49.8-164.65c-.97-2.78-1.61-5.65-1.92-8.58a4.61 4.61 0 0 1 3.86-5.25c.24-.04-2.13 0 22.25 0 8.78-.88 11.64 6.03 12.55 10.37l35.72 140.83 33.16-140.83c.53-3.22 2.94-11.07 12.8-10.24h17.16c2.17-.18 11.11-.5 12.68 10.37l33.42 142.63L420.98 80.1c.48-2.18 2.72-11.37 12.68-10.37h19.72c.85-.13 6.15-.81 5.25 8.58-.43 1.85 3.41-10.66-52.75 169.9-1.15 5.51-4.82 11.09-12.68 10.37h-18.69c-10.94 1.15-12.51-9.66-12.68-10.75L328.67 110.7l-32.78 136.99c-.16 1.09-1.73 11.9-12.68 10.75h-18.3zm273.48 5.63c-5.88.01-33.92-.3-57.36-12.29a12.802 12.802 0 0 1-7.81-11.91v-10.75c0-8.45 6.2-6.9 8.83-5.89 10.04 4.06 16.48 7.14 28.81 9.6 36.65 7.53 52.77-2.3 56.72-4.48 13.15-7.81 14.19-25.68 5.25-34.95-10.48-8.79-15.48-9.12-53.13-21-4.64-1.29-43.7-13.61-43.79-52.36-.61-28.24 25.05-56.18 69.52-55.95 12.67-.01 46.43 4.13 55.57 15.62 1.35 2.09 2.02 4.55 1.92 7.04v10.11c0 4.44-1.62 6.66-4.87 6.66-7.71-.86-21.39-11.17-49.16-10.75-6.89-.36-39.89.91-38.41 24.97-.43 18.96 26.61 26.07 29.7 26.89 36.46 10.97 48.65 12.79 63.12 29.58 17.14 22.25 7.9 48.3 4.35 55.44-19.08 37.49-68.42 34.44-69.26 34.42zm40.2 104.86c-70.03 51.72-171.69 79.25-258.49 79.25A469.127 469.127 0 0 1 2.83 327.46c-6.53-5.89-.77-13.96 7.17-9.47a637.37 637.37 0 0 0 316.88 84.12 630.22 630.22 0 0 0 241.59-49.55c11.78-5 21.77 7.8 10.12 16.38zm29.19-33.29c-8.96-11.52-59.28-5.38-81.81-2.69-6.79.77-7.94-5.12-1.79-9.47 40.07-28.17 105.88-20.1 113.44-10.63 7.55 9.47-2.05 75.41-39.56 106.91-5.76 4.87-11.27 2.3-8.71-4.1 8.44-21.25 27.39-68.49 18.43-80.02z" fill="gold"/></svg><g><text fill="black" stroke="none" font-family="sans-serif" font-size="11pt" font-style="normal" font-weight="normal" text-decoration="normal" x="1350.2583053508997" y="178.92416526472726" text-anchor="start" dominant-baseline="alphabetic" xml:space="preserve">AWS Polly</text></g></g><g><g><text fill="black" stroke="none" font-family="sans-serif" font-size="16pt" font-style="normal" font-weight="normal" text-decoration="normal" x="649.8007431030273" y="26.547561167272725" text-anchor="start" dominant-baseline="alphabetic" xml:space="preserve">http-public-address</text></g><g><text fill="black" stroke="none" font-family="sans-serif" font-size="11pt" font-style="normal" font-weight="normal" text-decoration="normal" x="124.08052886133333" y="235.2177889447273" text-anchor="start" dominant-baseline="alphabetic" xml:space="preserve">Announcement request</text></g><g><path fill="none" stroke="black" paint-order="fill stroke markers" d=" M 79.1629083 242.25449190472727 L 306.10333471509114 242.25449190472727" stroke-miterlimit="10" stroke-width="1.4659797833333332" stroke-dasharray=""/><g transform="translate(320.58721497442446,242.25449190472727) translate(-320.58721497442446,-242.25449190472727)"><path fill="black" stroke="none" paint-order="stroke fill markers" d=" M 305.9274171410911 234.9245929880606 L 320.58721497442446 242.25449190472727 L 305.9274171410911 249.58439082139395 Z"/></g></g><g><text fill="black" stroke="none" font-family="sans-serif" font-size="11pt" font-style="normal" font-weight="normal" text-decoration="normal" x="344.04289150775776" y="284.4747096647273" text-anchor="start" dominant-baseline="alphabetic" xml:space="preserve">Format request</text></g><g><path fill="none" stroke="black" paint-order="fill stroke markers" d=" M 320.58721497442446 291.51141262472726 L 452.4133694223828 291.51141262472726" stroke-miterlimit="10" stroke-width="1.4659797833333332" stroke-dasharray=""/><g transform="translate(466.8972496817161,291.51141262472726) translate(-466.8972496817161,-291.51141262472726)"><path fill="black" stroke="none" paint-order="stroke fill markers" d=" M 452.23745184838276 284.1815137080606 L 466.8972496817161 291.51141262472726 L 452.23745184838276 298.8413115413939 Z"/></g></g><g><text fill="black" stroke="none" font-family="sans-serif" font-size="11pt" font-style="normal" font-weight="normal" text-decoration="normal" x="661.7534475335228" y="333.7316303847273" text-anchor="start" dominant-baseline="alphabetic" xml:space="preserve">POST: </text><text fill="black" stroke="none" font-family="monospace" font-size="11pt" font-style="normal" font-weight="normal" text-decoration="normal" x="708.1886739739525" y="333.7316303847273" text-anchor="start" dominant-baseline="alphabetic" xml:space="preserve">/api/synthesize</text></g><g><path fill="none" stroke="black" paint-order="fill stroke markers" d=" M 466.8972496817161 340.76833334472724 L 1020.9517386367384 340.76833334472724" stroke-miterlimit="10" stroke-width="1.4659797833333332" stroke-dasharray=""/><g transform="translate(1035.4356188960717,340.76833334472724) translate(-1035.4356188960717,-340.76833334472724)"><path fill="black" stroke="none" paint-order="stroke fill markers" d=" M 1020.7758210627384 333.4384344280606 L 1035.4356188960717 340.76833334472724 L 1020.7758210627384 348.0982322613939 Z"/></g></g><g><text fill="black" stroke="none" font-family="sans-serif" font-size="11pt" font-style="normal" font-weight="normal" text-decoration="normal" x="683.1277914055931" y="382.98855110472726" text-anchor="start" dominant-baseline="alphabetic" xml:space="preserve">HTTP: 202/Accepted</text></g><g><path fill="none" stroke="black" paint-order="fill stroke markers" d=" M 1035.4356188960717 390.0252540647272 L 481.38112994104944 390.0252540647272" stroke-miterlimit="10" stroke-width="1.4659797833333332" stroke-dasharray=""/><g transform="translate(466.8972496817161,390.0252540647272) translate(-466.8972496817161,-390.0252540647272)"><path fill="black" stroke="none" paint-order="stroke fill markers" d=" M 481.5570475150495 382.69535514806057 L 466.8972496817161 390.0252540647272 L 481.5570475150495 397.35515298139387 Z"/></g></g><g><text fill="black" stroke="none" font-family="sans-serif" font-size="11pt" font-style="normal" font-weight="normal" text-decoration="normal" x="1058.891295429405" y="432.24547182472725" text-anchor="start" dominant-baseline="alphabetic" xml:space="preserve">Check filename exists</text></g><g><path fill="none" stroke="black" paint-order="fill stroke markers" d=" M 1035.4356188960717 439.2821747847272 L 1210.4471371135612 439.2821747847272" stroke-miterlimit="10" stroke-width="1.4659797833333332" stroke-dasharray=""/><g transform="translate(1224.9310173728945,439.2821747847272) translate(-1224.9310173728945,-439.2821747847272)"><path fill="black" stroke="none" paint-order="stroke fill markers" d=" M 1210.2712195395611 431.95227586806055 L 1224.9310173728945 439.2821747847272 L 1210.2712195395611 446.61207370139385 Z"/></g></g><g><text fill="black" stroke="none" font-family="sans-serif" font-size="11pt" font-style="normal" font-weight="normal" text-decoration="normal" x="1100.0365819894637" y="529.0001375247272" text-anchor="start" dominant-baseline="alphabetic" xml:space="preserve">Filename</text></g><g><path fill="none" stroke="black" paint-order="fill stroke markers" d=" M 1224.9310173728945 536.0368404847272 L 1049.919499155405 536.0368404847272" stroke-miterlimit="10" stroke-width="1.4659797833333332" stroke-dasharray=""/><g transform="translate(1035.4356188960717,536.0368404847272) translate(-1035.4356188960717,-536.0368404847272)"><path fill="black" stroke="none" paint-order="stroke fill markers" d=" M 1050.095416729405 528.7069415680605 L 1035.4356188960717 536.0368404847272 L 1050.095416729405 543.3667394013939 Z"/></g></g><g><text fill="black" stroke="none" font-family="sans-serif" font-size="11pt" font-style="normal" font-weight="normal" text-decoration="normal" x="1116.72315612373" y="652.1424393247272" text-anchor="start" dominant-baseline="alphabetic" xml:space="preserve">Start Speech Synthesis Task</text></g><g><path fill="none" stroke="black" paint-order="fill stroke markers" d=" M 1035.4356188960717 659.1791422847273 L 1370.1265903137344 659.1791422847273" stroke-miterlimit="10" stroke-width="1.4659797833333332" stroke-dasharray=""/><g transform="translate(1384.6104705730677,659.1791422847273) translate(-1384.6104705730677,-659.1791422847273)"><path fill="black" stroke="none" paint-order="stroke fill markers" d=" M 1369.9506727397343 651.8492433680606 L 1384.6104705730677 659.1791422847273 L 1369.9506727397343 666.509041201394 Z"/></g></g><g><rect fill="rgb(230,230,230)" stroke="none" x="1160.837358108847" y="733.0645233647273" width="107.16725195144531" height="22.86928462"/><text fill="#e67373" stroke="none" font-family="sans-serif" font-size="11pt" font-style="normal" font-weight="normal" text-decoration="normal" x="1163.476121718847" y="748.8971050247272" text-anchor="start" dominant-baseline="alphabetic" xml:space="preserve">Sequence ends</text></g><g><path fill="none" stroke="black" paint-order="fill stroke markers" d=" M 1384.6104705730677 755.9338079847273 L 1053.0273762960717 755.9338079847273" stroke-miterlimit="10" stroke-width="1.4659797833333332" stroke-dasharray=""/><path fill="none" stroke="black" paint-order="fill stroke markers" d=" M 1044.2314975960717 747.1379292847273 L 1061.8232549960717 764.7296866847273 M 1044.2314975960717 764.7296866847273 L 1061.8232549960717 747.1379292847273" stroke-miterlimit="10" stroke-width="1.4659797833333332"/></g><g><text fill="black" stroke="none" font-family="sans-serif" font-size="11pt" font-style="normal" font-weight="normal" text-decoration="normal" x="1172.9436074787104" y="824.5416618447273" text-anchor="start" dominant-baseline="alphabetic" xml:space="preserve">Binary data</text></g><g><path fill="none" stroke="black" paint-order="fill stroke markers" d=" M 1384.6104705730677 831.5783648047274 L 1049.919499155405 831.5783648047274" stroke-miterlimit="10" stroke-width="1.4659797833333332" stroke-dasharray=""/><g transform="translate(1035.4356188960717,831.5783648047274) translate(-1035.4356188960717,-831.5783648047274)"><path fill="black" stroke="none" paint-order="stroke fill markers" d=" M 1050.095416729405 824.2484658880607 L 1035.4356188960717 831.5783648047274 L 1050.095416729405 838.9082637213941 Z"/></g></g><g><text fill="black" stroke="none" font-family="sans-serif" font-size="11pt" font-style="normal" font-weight="normal" text-decoration="normal" x="1074.907752033409" y="873.7985825647273" text-anchor="start" dominant-baseline="alphabetic" xml:space="preserve">Write binary data</text></g><g><path fill="none" stroke="black" paint-order="fill stroke markers" d=" M 1035.4356188960717 880.8352855247274 L 1210.4471371135612 880.8352855247274" stroke-miterlimit="10" stroke-width="1.4659797833333332" stroke-dasharray=""/><g transform="translate(1224.9310173728945,880.8352855247274) translate(-1224.9310173728945,-880.8352855247274)"><path fill="black" stroke="none" paint-order="stroke fill markers" d=" M 1210.2712195395611 873.5053866080607 L 1224.9310173728945 880.8352855247274 L 1210.2712195395611 888.1651844413941 Z"/></g></g><g><text fill="black" stroke="none" font-family="sans-serif" font-size="11pt" font-style="normal" font-weight="normal" text-decoration="normal" x="1100.0365819894637" y="923.0555032847274" text-anchor="start" dominant-baseline="alphabetic" xml:space="preserve">Filename</text></g><g><path fill="none" stroke="black" paint-order="fill stroke markers" d=" M 1224.9310173728945 930.0922062447274 L 1049.919499155405 930.0922062447274" stroke-miterlimit="10" stroke-width="1.4659797833333332" stroke-dasharray=""/><g transform="translate(1035.4356188960717,930.0922062447274) translate(-1035.4356188960717,-930.0922062447274)"><path fill="black" stroke="none" paint-order="stroke fill markers" d=" M 1050.095416729405 922.7623073280607 L 1035.4356188960717 930.0922062447274 L 1050.095416729405 937.4221051613941 Z"/></g></g><g><rect fill="rgb(230,230,230)" stroke="none" x="795.1179235952676" y="1030.3652234247274" width="166.61605871414062" height="22.86928462"/><rect fill="rgb(230,230,230)" stroke="none" x="795.1179235952676" y="1047.9569808247275" width="107.16725195144531" height="22.86928462"/><text fill="black" stroke="none" font-family="sans-serif" font-size="11pt" font-style="normal" font-weight="normal" text-decoration="normal" x="797.7566872052676" y="1046.1978050847274" text-anchor="start" dominant-baseline="alphabetic" xml:space="preserve">No request will be made;</text><text fill="#e67373" stroke="none" font-family="sans-serif" font-size="11pt" font-style="normal" font-weight="normal" text-decoration="normal" x="797.7566872052676" y="1063.7895624847274" text-anchor="start" dominant-baseline="alphabetic" xml:space="preserve">Sequence ends</text></g><g><path fill="none" stroke="black" paint-order="fill stroke markers" d=" M 1035.4356188960717 1057.9962101229116 L 730.2121657086042 1110.7714823229117" stroke-miterlimit="10" stroke-width="1.4659797833333332" stroke-dasharray=""/><path fill="none" stroke="black" paint-order="fill stroke markers" d=" M 721.4162870086042 1101.9756036229116 L 739.0080444086042 1119.5673610229117 M 721.4162870086042 1119.5673610229117 L 739.0080444086042 1101.9756036229116" stroke-miterlimit="10" stroke-width="1.4659797833333332"/></g><g><text fill="black" stroke="none" font-family="sans-serif" font-size="11pt" font-style="normal" font-weight="normal" text-decoration="normal" x="797.7566872052676" y="1226.8770811629117" text-anchor="start" dominant-baseline="alphabetic" xml:space="preserve">No request will be made;</text><text fill="#e67373" stroke="none" font-family="sans-serif" font-size="11pt" font-style="normal" font-weight="normal" text-decoration="normal" x="797.7566872052676" y="1244.4688385629117" text-anchor="start" dominant-baseline="alphabetic" xml:space="preserve">Sequence ends</text></g><g><path fill="none" stroke="black" paint-order="fill stroke markers" d=" M 1035.4356188960717 1238.675486201096 L 730.2121657086042 1291.450758401096" stroke-miterlimit="10" stroke-width="1.4659797833333332" stroke-dasharray=""/><path fill="none" stroke="black" paint-order="fill stroke markers" d=" M 721.4162870086042 1282.654879701096 L 739.0080444086042 1300.246637101096 M 721.4162870086042 1300.246637101096 L 739.0080444086042 1282.654879701096" stroke-miterlimit="10" stroke-width="1.4659797833333332"/></g><g><text fill="black" stroke="none" font-family="sans-serif" font-size="11pt" font-style="normal" font-weight="normal" text-decoration="normal" x="771.3759521399356" y="1360.058612261096" text-anchor="start" dominant-baseline="alphabetic" xml:space="preserve">POST: </text><text fill="blue" stroke="none" font-family="monospace" font-size="11pt" font-style="normal" font-weight="normal" text-decoration="normal" x="817.8111785803653" y="1360.058612261096" text-anchor="start" dominant-baseline="alphabetic" xml:space="preserve">SYNTHESIS_COMPLETE</text></g><g><path fill="none" stroke="black" paint-order="fill stroke markers" d=" M 1035.4356188960717 1357.489696535054 L 726.9145274714317 1407.9281023020733" stroke-miterlimit="10" stroke-width="1.4659797833333332" stroke-dasharray=""/><g transform="translate(712.6204083086042,1410.264968735054) rotate(-9.28483224423936,0,0) translate(-712.6204083086042,-1410.264968735054)"><path fill="black" stroke="none" paint-order="stroke fill markers" d=" M 727.2802061419375 1402.9350698183873 L 712.6204083086042 1410.264968735054 L 727.2802061419375 1417.5948676517207 Z"/><g transform="rotate(9.28483224423936,0,0)"/></g></g><g><text fill="black" stroke="none" font-family="sans-serif" font-size="11pt" font-style="normal" font-weight="normal" text-decoration="normal" x="791.3294052039005" y="1452.485186495054" text-anchor="start" dominant-baseline="alphabetic" xml:space="preserve">(HTTP response ignored)</text></g><g><path fill="none" stroke="black" paint-order="fill stroke markers" d=" M 712.6204083086042 1459.521889455054 L 1020.9517386367384 1459.521889455054" stroke-miterlimit="10" stroke-width="1.4659797833333332" stroke-dasharray=""/><g transform="translate(1035.4356188960717,1459.521889455054) translate(-1035.4356188960717,-1459.521889455054)"><path fill="black" stroke="none" paint-order="stroke fill markers" d=" M 1020.7758210627384 1452.1919905383872 L 1035.4356188960717 1459.521889455054 L 1020.7758210627384 1466.8517883717207 Z"/></g></g><g><text fill="black" stroke="none" font-family="sans-serif" font-size="11pt" font-style="normal" font-weight="normal" text-decoration="normal" x="498.488290665082" y="1501.742107215054" text-anchor="start" dominant-baseline="alphabetic" xml:space="preserve">Synthesis complete payload</text></g><g><path fill="none" stroke="black" paint-order="fill stroke markers" d=" M 712.6204083086042 1508.7788101750539 L 481.38112994104944 1508.7788101750539" stroke-miterlimit="10" stroke-width="1.4659797833333332" stroke-dasharray=""/><g transform="translate(466.8972496817161,1508.7788101750539) translate(-466.8972496817161,-1508.7788101750539)"><path fill="black" stroke="none" paint-order="stroke fill markers" d=" M 481.5570475150495 1501.4489112583872 L 466.8972496817161 1508.7788101750539 L 481.5570475150495 1516.1087090917206 Z"/></g></g><g><text fill="green" stroke="none" font-family="sans-serif" font-size="11pt" font-style="normal" font-weight="normal" text-decoration="normal" x="490.3529262150495" y="1550.9990279350538" text-anchor="start" dominant-baseline="alphabetic" xml:space="preserve">If AirPlay is playing,</text><text fill="green" stroke="none" font-family="sans-serif" font-size="11pt" font-style="normal" font-weight="normal" text-decoration="normal" x="490.3529262150495" y="1568.5907853350539" text-anchor="start" dominant-baseline="alphabetic" xml:space="preserve">change AirPlay volume to 50%</text></g><g><path fill="none" stroke="green" paint-order="fill stroke markers" d=" M 466.8972496817161 1575.627488295054 L 537.2642792817161 1575.627488295054 L 537.2642792817161 1598.496772915054 L 481.38112994104944 1598.496772915054" stroke-miterlimit="10" stroke-width="1.4659797833333332" stroke-dasharray=""/><g transform="translate(466.8972496817161,1598.496772915054) translate(-466.8972496817161,-1598.496772915054)"><path fill="green" stroke="none" paint-order="stroke fill markers" d=" M 481.5570475150495 1591.1668739983872 L 466.8972496817161 1598.496772915054 L 481.5570475150495 1605.8266718317207 Z"/></g></g><g><text fill="black" stroke="none" font-family="sans-serif" font-size="11pt" font-style="normal" font-weight="normal" text-decoration="normal" x="670.5794973382103" y="1640.716990675054" text-anchor="start" dominant-baseline="alphabetic" xml:space="preserve">POST: </text><text fill="black" stroke="none" font-family="monospace" font-size="11pt" font-style="normal" font-weight="normal" text-decoration="normal" x="717.01472377864" y="1640.716990675054" text-anchor="start" dominant-baseline="alphabetic" xml:space="preserve">/api/playback</text></g><g><path fill="none" stroke="black" paint-order="fill stroke markers" d=" M 466.8972496817161 1647.7536936350539 L 1020.9517386367384 1647.7536936350539" stroke-miterlimit="10" stroke-width="1.4659797833333332" stroke-dasharray=""/><g transform="translate(1035.4356188960717,1647.7536936350539) translate(-1035.4356188960717,-1647.7536936350539)"><path fill="black" stroke="none" paint-order="stroke fill markers" d=" M 1020.7758210627384 1640.4237947183872 L 1035.4356188960717 1647.7536936350539 L 1020.7758210627384 1655.0835925517206 Z"/></g></g><g><text fill="black" stroke="none" font-family="sans-serif" font-size="11pt" font-style="normal" font-weight="normal" text-decoration="normal" x="678.2387380608666" y="1689.9739113950538" text-anchor="start" dominant-baseline="alphabetic" xml:space="preserve">HTTP: 204/No content</text></g><g><path fill="none" stroke="black" paint-order="fill stroke markers" d=" M 1035.4356188960717 1697.0106143550538 L 481.38112994104944 1697.0106143550538" stroke-miterlimit="10" stroke-width="1.4659797833333332" stroke-dasharray=""/><g transform="translate(466.8972496817161,1697.0106143550538) translate(-466.8972496817161,-1697.0106143550538)"><path fill="black" stroke="none" paint-order="stroke fill markers" d=" M 481.5570475150495 1689.680715438387 L 466.8972496817161 1697.0106143550538 L 481.5570475150495 1704.3405132717205 Z"/></g></g><g><text fill="black" stroke="none" font-family="sans-serif" font-size="11pt" font-style="normal" font-weight="normal" text-decoration="normal" x="1093.1038808786238" y="1739.2308321150538" text-anchor="start" dominant-baseline="alphabetic" xml:space="preserve">Binary data</text></g><g><path fill="none" stroke="black" paint-order="fill stroke markers" d=" M 1224.9310173728945 1746.2675350750537 L 1049.919499155405 1746.2675350750537" stroke-miterlimit="10" stroke-width="1.4659797833333332" stroke-dasharray=""/><g transform="translate(1035.4356188960717,1746.2675350750537) translate(-1035.4356188960717,-1746.2675350750537)"><path fill="black" stroke="none" paint-order="stroke fill markers" d=" M 1050.095416729405 1738.937636158387 L 1035.4356188960717 1746.2675350750537 L 1050.095416729405 1753.5974339917204 Z"/></g></g><g><rect fill="rgb(230,230,230)" stroke="none" x="1083.1279590654988" y="1820.1529161550536" width="94.11071813796875" height="22.86928462"/><text fill="black" stroke="none" font-family="sans-serif" font-size="11pt" font-style="normal" font-weight="normal" text-decoration="normal" x="1085.7667226754988" y="1835.9854978150536" text-anchor="start" dominant-baseline="alphabetic" xml:space="preserve">File not found</text></g><g><path fill="none" stroke="black" paint-order="fill stroke markers" d=" M 1224.9310173728945 1843.0222007750535 L 1049.919499155405 1843.0222007750535" stroke-miterlimit="10" stroke-width="1.4659797833333332" stroke-dasharray=""/><g transform="translate(1035.4356188960717,1843.0222007750535) translate(-1035.4356188960717,-1843.0222007750535)"><path fill="black" stroke="none" paint-order="stroke fill markers" d=" M 1050.095416729405 1835.6923018583868 L 1035.4356188960717 1843.0222007750535 L 1050.095416729405 1850.3520996917202 Z"/></g></g><g><rect fill="rgb(230,230,230)" stroke="none" x="697.5828083131713" y="1869.4098368750535" width="76.15798986648437" height="22.86928462"/><rect fill="rgb(230,230,230)" stroke="none" x="697.5828083131713" y="1887.0015942750535" width="107.16725195144531" height="22.86928462"/><text fill="black" stroke="none" font-family="sans-serif" font-size="11pt" font-style="normal" font-weight="normal" text-decoration="normal" x="700.2215719231713" y="1885.2424185350535" text-anchor="start" dominant-baseline="alphabetic" xml:space="preserve">HTTP: 404</text><text fill="#e67373" stroke="none" font-family="sans-serif" font-size="11pt" font-style="normal" font-weight="normal" text-decoration="normal" x="700.2215719231713" y="1902.8341759350535" text-anchor="start" dominant-baseline="alphabetic" xml:space="preserve">Sequence ends</text></g><g><path fill="none" stroke="black" paint-order="fill stroke markers" d=" M 1035.4356188960717 1909.8708788950535 L 481.38112994104944 1909.8708788950535" stroke-miterlimit="10" stroke-width="1.4659797833333332" stroke-dasharray=""/><g transform="translate(466.8972496817161,1909.8708788950535) translate(-466.8972496817161,-1909.8708788950535)"><path fill="black" stroke="none" paint-order="stroke fill markers" d=" M 481.5570475150495 1902.5409799783868 L 466.8972496817161 1909.8708788950535 L 481.5570475150495 1917.2007778117202 Z"/></g></g><g><rect fill="rgb(230,230,230)" stroke="none" x="697.5828083131713" y="2010.1438960750536" width="76.15798986648437" height="22.86928462"/><rect fill="rgb(230,230,230)" stroke="none" x="697.5828083131713" y="2027.7356534750536" width="107.16725195144531" height="22.86928462"/><text fill="black" stroke="none" font-family="sans-serif" font-size="11pt" font-style="normal" font-weight="normal" text-decoration="normal" x="700.2215719231713" y="2025.9764777350535" text-anchor="start" dominant-baseline="alphabetic" xml:space="preserve">HTTP: 500</text><text fill="#e67373" stroke="none" font-family="sans-serif" font-size="11pt" font-style="normal" font-weight="normal" text-decoration="normal" x="700.2215719231713" y="2043.5682351350536" text-anchor="start" dominant-baseline="alphabetic" xml:space="preserve">Sequence ends</text></g><g><path fill="none" stroke="black" paint-order="fill stroke markers" d=" M 1035.4356188960717 2050.6049380950535 L 481.38112994104944 2050.6049380950535" stroke-miterlimit="10" stroke-width="1.4659797833333332" stroke-dasharray=""/><g transform="translate(466.8972496817161,2050.6049380950535) translate(-466.8972496817161,-2050.6049380950535)"><path fill="black" stroke="none" paint-order="stroke fill markers" d=" M 481.5570475150495 2043.2750391783868 L 466.8972496817161 2050.6049380950535 L 481.5570475150495 2057.93483701172 Z"/></g></g><g><text fill="black" stroke="none" font-family="sans-serif" font-size="11pt" font-style="normal" font-weight="normal" text-decoration="normal" x="789.0280517493106" y="2119.2127919550535" text-anchor="start" dominant-baseline="alphabetic" xml:space="preserve">POST: </text><text fill="blue" stroke="none" font-family="monospace" font-size="11pt" font-style="normal" font-weight="normal" text-decoration="normal" x="835.4632781897403" y="2119.2127919550535" text-anchor="start" dominant-baseline="alphabetic" xml:space="preserve">PLAYBACK_START</text></g><g><path fill="none" stroke="black" paint-order="fill stroke markers" d=" M 1035.4356188960717 2113.758032157132 L 726.9145274714317 2164.1964379241517" stroke-miterlimit="10" stroke-width="1.4659797833333332" stroke-dasharray=""/><g transform="translate(712.6204083086042,2166.5333043571322) rotate(-9.28483224423936,0,0) translate(-712.6204083086042,-2166.5333043571322)"><path fill="black" stroke="none" paint-order="stroke fill markers" d=" M 727.2802061419375 2159.2034054404658 L 712.6204083086042 2166.5333043571322 L 727.2802061419375 2173.8632032737987 Z"/><g transform="rotate(9.28483224423936,0,0)"/></g></g><g><text fill="black" stroke="none" font-family="sans-serif" font-size="11pt" font-style="normal" font-weight="normal" text-decoration="normal" x="791.3294052039005" y="2208.753522117132" text-anchor="start" dominant-baseline="alphabetic" xml:space="preserve">(HTTP response ignored)</text></g><g><path fill="none" stroke="black" paint-order="fill stroke markers" d=" M 712.6204083086042 2215.790225077132 L 1020.9517386367384 2215.790225077132" stroke-miterlimit="10" stroke-width="1.4659797833333332" stroke-dasharray="7.0367029599999995"/><g transform="translate(1035.4356188960717,2215.790225077132) translate(-1035.4356188960717,-2215.790225077132)"><path fill="black" stroke="none" paint-order="stroke fill markers" d=" M 1020.7758210627384 2208.4603261604657 L 1035.4356188960717 2215.790225077132 L 1020.7758210627384 2223.1201239937986 Z"/></g></g><g><text fill="black" stroke="none" font-family="sans-serif" font-size="11pt" font-style="normal" font-weight="normal" text-decoration="normal" x="507.58561766297726" y="2258.785171951665" text-anchor="start" dominant-baseline="alphabetic" xml:space="preserve">Audio is played</text></g><g><path fill="none" stroke="black" paint-order="fill stroke markers" d=" M 1035.4356188960717 2242.177861177132 L 93.62478151694773 2294.1550040494944" stroke-miterlimit="10" stroke-width="1.4659797833333332" stroke-dasharray=""/><g transform="translate(79.1629083,2294.953133377132) rotate(-3.1588646088331673,0,0) translate(-79.1629083,-2294.953133377132)"><path fill="black" stroke="none" paint-order="stroke fill markers" d=" M 93.82270613333333 2287.6232344604655 L 79.1629083 2294.953133377132 L 93.82270613333333 2302.2830322937984 Z"/><g transform="rotate(3.1588646088331673,0,0)"/></g></g><g><text fill="black" stroke="none" font-family="sans-serif" font-size="11pt" font-style="normal" font-weight="normal" text-decoration="normal" x="507.58561766297726" y="2385.4458252316645" text-anchor="start" dominant-baseline="alphabetic" xml:space="preserve">Audio is played</text></g><g><path fill="none" stroke="black" paint-order="fill stroke markers" d=" M 1035.4356188960717 2368.8385144571316 L 93.62478151694773 2420.815657329494" stroke-miterlimit="10" stroke-width="1.4659797833333332" stroke-dasharray=""/><g transform="translate(79.1629083,2421.6137866571316) rotate(-3.1588646088331673,0,0) translate(-79.1629083,-2421.6137866571316)"><path fill="black" stroke="none" paint-order="stroke fill markers" d=" M 93.82270613333333 2414.283887740465 L 79.1629083 2421.6137866571316 L 93.82270613333333 2428.943685573798 Z"/><g transform="rotate(3.1588646088331673,0,0)"/></g></g><g><text fill="black" stroke="none" font-family="sans-serif" font-size="11pt" font-style="normal" font-weight="normal" text-decoration="normal" x="507.58561766297726" y="2464.6087335316643" text-anchor="start" dominant-baseline="alphabetic" xml:space="preserve">Audio is played</text></g><g><path fill="none" stroke="black" paint-order="fill stroke markers" d=" M 1035.4356188960717 2448.0014227571314 L 93.62478151694773 2499.978565629494" stroke-miterlimit="10" stroke-width="1.4659797833333332" stroke-dasharray=""/><g transform="translate(79.1629083,2500.7766949571314) rotate(-3.1588646088331673,0,0) translate(-79.1629083,-2500.7766949571314)"><path fill="black" stroke="none" paint-order="stroke fill markers" d=" M 93.82270613333333 2493.446796040465 L 79.1629083 2500.7766949571314 L 93.82270613333333 2508.106593873798 Z"/><g transform="rotate(3.1588646088331673,0,0)"/></g></g><g><text fill="black" stroke="none" font-family="sans-serif" font-size="11pt" font-style="normal" font-weight="normal" text-decoration="normal" x="775.7889770422794" y="2569.384548817131" text-anchor="start" dominant-baseline="alphabetic" xml:space="preserve">POST: </text><text fill="blue" stroke="none" font-family="monospace" font-size="11pt" font-style="normal" font-weight="normal" text-decoration="normal" x="822.2242034827091" y="2569.384548817131" text-anchor="start" dominant-baseline="alphabetic" xml:space="preserve">PLAYBACK_COMPLETE</text></g><g><path fill="none" stroke="black" paint-order="fill stroke markers" d=" M 1035.4356188960717 2566.0941720731194 L 726.9145274714317 2616.532577840139" stroke-miterlimit="10" stroke-width="1.4659797833333332" stroke-dasharray=""/><g transform="translate(712.6204083086042,2618.8694442731194) rotate(-9.28483224423936,0,0) translate(-712.6204083086042,-2618.8694442731194)"><path fill="black" stroke="none" paint-order="stroke fill markers" d=" M 727.2802061419375 2611.539545356453 L 712.6204083086042 2618.8694442731194 L 727.2802061419375 2626.199343189786 Z"/><g transform="rotate(9.28483224423936,0,0)"/></g></g><g><text fill="black" stroke="none" font-family="sans-serif" font-size="11pt" font-style="normal" font-weight="normal" text-decoration="normal" x="791.3294052039005" y="2661.089662033119" text-anchor="start" dominant-baseline="alphabetic" xml:space="preserve">(HTTP response ignored)</text></g><g><path fill="none" stroke="black" paint-order="fill stroke markers" d=" M 712.6204083086042 2668.1263649931193 L 1020.9517386367384 2668.1263649931193" stroke-miterlimit="10" stroke-width="1.4659797833333332" stroke-dasharray="7.0367029599999995"/><g transform="translate(1035.4356188960717,2668.1263649931193) translate(-1035.4356188960717,-2668.1263649931193)"><path fill="black" stroke="none" paint-order="stroke fill markers" d=" M 1020.7758210627384 2660.796466076453 L 1035.4356188960717 2668.1263649931193 L 1020.7758210627384 2675.456263909786 Z"/></g></g><g><text fill="green" stroke="none" font-family="sans-serif" font-size="11pt" font-style="normal" font-weight="normal" text-decoration="normal" x="490.3529262150495" y="2710.3465827531195" text-anchor="start" dominant-baseline="alphabetic" xml:space="preserve">If AirPlay was previously playing,</text><text fill="green" stroke="none" font-family="sans-serif" font-size="11pt" font-style="normal" font-weight="normal" text-decoration="normal" x="490.3529262150495" y="2727.9383401531195" text-anchor="start" dominant-baseline="alphabetic" xml:space="preserve">reset AirPlay volume to 100%</text></g><g><path fill="none" stroke="green" paint-order="fill stroke markers" d=" M 466.8972496817161 2734.975043113119 L 537.2642792817161 2734.975043113119 L 537.2642792817161 2757.8443277331194 L 481.38112994104944 2757.8443277331194" stroke-miterlimit="10" stroke-width="1.4659797833333332" stroke-dasharray=""/><g transform="translate(466.8972496817161,2757.8443277331194) translate(-466.8972496817161,-2757.8443277331194)"><path fill="green" stroke="none" paint-order="stroke fill markers" d=" M 481.5570475150495 2750.514428816453 L 466.8972496817161 2757.8443277331194 L 481.5570475150495 2765.174226649786 Z"/></g></g><g><g/><path fill="none" stroke="black" paint-order="fill stroke markers" d=" M 973.8644679960717 465.6698108847272 L 1286.5021682728946 465.6698108847272 L 1286.5021682728946 562.4244765847272 L 973.8644679960717 562.4244765847272 L 973.8644679960717 465.6698108847272 Z" stroke-miterlimit="10" stroke-width="2.5131082" stroke-dasharray=""/><path fill="white" stroke="black" paint-order="fill stroke markers" d=" M 973.8644679960717 465.6698108847272 L 973.8644679960717 486.7799197647272 L 1065.7734619220482 486.7799197647272 L 1076.3285163620483 476.2248653247272 L 1076.3285163620483 465.6698108847272 L 973.8644679960717 465.6698108847272" stroke-miterlimit="10" stroke-width="2.5131082" stroke-dasharray=""/><text fill="black" stroke="none" font-family="sans-serif" font-size="8.8pt" font-style="normal" font-weight="bold" text-decoration="normal" x="991.4562253960717" y="479.7432168047272" text-anchor="start" dominant-baseline="alphabetic" xml:space="preserve">File exists</text></g><g><g/><path fill="none" stroke="black" paint-order="fill stroke markers" d=" M 956.2727105960716 588.8121126847273 L 1463.7733788730677 588.8121126847273 L 1463.7733788730677 956.4798423447274 L 956.2727105960716 956.4798423447274 L 956.2727105960716 588.8121126847273 Z" stroke-miterlimit="10" stroke-width="2.5131082" stroke-dasharray=""/><path fill="white" stroke="black" paint-order="fill stroke markers" d=" M 956.2727105960716 588.8121126847273 L 956.2727105960716 609.9222215647272 L 1093.790041924392 609.9222215647272 L 1104.345096364392 599.3671671247273 L 1104.345096364392 588.8121126847273 L 956.2727105960716 588.8121126847273" stroke-miterlimit="10" stroke-width="2.5131082" stroke-dasharray=""/><text fill="black" stroke="none" font-family="sans-serif" font-size="8.8pt" font-style="normal" font-weight="bold" text-decoration="normal" x="973.8644679960717" y="602.8855186047273" text-anchor="start" dominant-baseline="alphabetic" xml:space="preserve">File does not exist</text></g><g><g/><path fill="none" stroke="black" paint-order="fill stroke markers" d=" M 973.8644679960717 685.5667783847273 L 1446.1816214730677 685.5667783847273 L 1446.1816214730677 782.3214440847273 L 973.8644679960717 782.3214440847273 L 973.8644679960717 685.5667783847273 Z" stroke-miterlimit="10" stroke-width="2.5131082" stroke-dasharray=""/><path fill="#808080" stroke="black" paint-order="fill stroke markers" d=" M 973.8644679960717 685.5667783847273 L 973.8644679960717 706.6768872647273 L 1093.763879402517 706.6768872647273 L 1104.318933842517 696.1218328247273 L 1104.318933842517 685.5667783847273 L 973.8644679960717 685.5667783847273" stroke-miterlimit="10" stroke-width="2.5131082" stroke-dasharray=""/><text fill="#FFFFFF" stroke="none" font-family="sans-serif" font-size="8.8pt" font-style="normal" font-weight="bold" text-decoration="normal" x="991.4562253960717" y="699.6401843047273" text-anchor="start" dominant-baseline="alphabetic" xml:space="preserve">Error condition</text></g><g><g/><path fill="none" stroke="black" paint-order="fill stroke markers" d=" M 651.0492574086041 982.8674784447275 L 1097.0067697960717 982.8674784447275 L 1097.0067697960717 1137.1591184229117 L 651.0492574086041 1137.1591184229117 L 651.0492574086041 982.8674784447275 Z" stroke-miterlimit="10" stroke-width="2.5131082" stroke-dasharray=""/><path fill="#808080" stroke="black" paint-order="fill stroke markers" d=" M 651.0492574086041 982.8674784447275 L 651.0492574086041 1003.9775873247274 L 770.9486688150495 1003.9775873247274 L 781.5037232550495 993.4225328847275 L 781.5037232550495 982.8674784447275 L 651.0492574086041 982.8674784447275" stroke-miterlimit="10" stroke-width="2.5131082" stroke-dasharray=""/><text fill="#FFFFFF" stroke="none" font-family="sans-serif" font-size="8.8pt" font-style="normal" font-weight="bold" text-decoration="normal" x="668.6410148086042" y="996.9408843647275" text-anchor="start" dominant-baseline="alphabetic" xml:space="preserve">Error condition</text></g><g><g/><path fill="none" stroke="black" paint-order="fill stroke markers" d=" M 651.0492574086041 1163.5467545229117 L 1097.0067697960717 1163.5467545229117 L 1097.0067697960717 1317.838394501096 L 651.0492574086041 1317.838394501096 L 651.0492574086041 1163.5467545229117 Z" stroke-miterlimit="10" stroke-width="2.5131082" stroke-dasharray=""/><path fill="white" stroke="black" paint-order="fill stroke markers" d=" M 651.0492574086041 1163.5467545229117 L 651.0492574086041 1184.6568634029118 L 868.5229791177838 1184.6568634029118 L 879.0780335577839 1174.1018089629117 L 879.0780335577839 1163.5467545229117 L 651.0492574086041 1163.5467545229117" stroke-miterlimit="10" stroke-width="2.5131082" stroke-dasharray=""/><text fill="black" stroke="none" font-family="sans-serif" font-size="8.8pt" font-style="normal" font-weight="bold" text-decoration="normal" x="668.6410148086042" y="1177.6201604429118" text-anchor="start" dominant-baseline="alphabetic" xml:space="preserve">Webhook Callback Not Specified</text></g><g><g/><path fill="none" stroke="black" paint-order="fill stroke markers" d=" M 405.32609878171615 1772.6551711750535 L 1286.5021682728946 1772.6551711750535 L 1286.5021682728946 1936.2585149950535 L 405.32609878171615 1936.2585149950535 L 405.32609878171615 1772.6551711750535 Z" stroke-miterlimit="10" stroke-width="2.5131082" stroke-dasharray=""/><path fill="#808080" stroke="black" paint-order="fill stroke markers" d=" M 405.32609878171615 1772.6551711750535 L 405.32609878171615 1793.7652800550536 L 518.0374761305443 1793.7652800550536 L 528.5925305705443 1783.2102256150536 L 528.5925305705443 1772.6551711750535 L 405.32609878171615 1772.6551711750535" stroke-miterlimit="10" stroke-width="2.5131082" stroke-dasharray=""/><text fill="#FFFFFF" stroke="none" font-family="sans-serif" font-size="8.8pt" font-style="normal" font-weight="bold" text-decoration="normal" x="422.91785618171616" y="1786.7285770950537" text-anchor="start" dominant-baseline="alphabetic" xml:space="preserve">File not found</text></g><g><g/><path fill="none" stroke="black" paint-order="fill stroke markers" d=" M 405.32609878171615 1962.6461510950535 L 1097.0067697960717 1962.6461510950535 L 1097.0067697960717 2076.9925741950533 L 405.32609878171615 2076.9925741950533 L 405.32609878171615 1962.6461510950535 Z" stroke-miterlimit="10" stroke-width="2.5131082" stroke-dasharray=""/><path fill="#808080" stroke="black" paint-order="fill stroke markers" d=" M 405.32609878171615 1962.6461510950535 L 405.32609878171615 1983.7562599750536 L 525.2255101881615 1983.7562599750536 L 535.7805646281615 1973.2012055350535 L 535.7805646281615 1962.6461510950535 L 405.32609878171615 1962.6461510950535" stroke-miterlimit="10" stroke-width="2.5131082" stroke-dasharray=""/><text fill="#FFFFFF" stroke="none" font-family="sans-serif" font-size="8.8pt" font-style="normal" font-weight="bold" text-decoration="normal" x="422.91785618171616" y="1976.7195570150536" text-anchor="start" dominant-baseline="alphabetic" xml:space="preserve">Error condition</text></g><g><g/><path fill="none" stroke="black" paint-order="fill stroke markers" d=" M 17.591757400000006 2321.3407694771317 L 1097.0067697960717 2321.3407694771317 L 1097.0067697960717 2527.164331057131 L 17.591757400000006 2527.164331057131 L 17.591757400000006 2321.3407694771317 Z" stroke-miterlimit="10" stroke-width="2.5131082" stroke-dasharray=""/><path fill="white" stroke="black" paint-order="fill stroke markers" d=" M 17.591757400000006 2321.3407694771317 L 17.591757400000006 2342.450878357132 L 260.71336729277346 2342.450878357132 L 271.26842173277345 2331.8958239171316 L 271.26842173277345 2321.3407694771317 L 17.591757400000006 2321.3407694771317" stroke-miterlimit="10" stroke-width="2.5131082" stroke-dasharray=""/><text fill="black" stroke="none" font-family="sans-serif" font-size="8.8pt" font-style="normal" font-weight="bold" text-decoration="normal" x="35.183514800000005" y="2335.4141753971317" text-anchor="start" dominant-baseline="alphabetic" xml:space="preserve">Multiple Playback Requests in Queue</text></g></g><g/></g></svg>